<?xml version="1.0" encoding="utf-8"?>
<!-- Generator: Adobe Illustrator 24.0.2, SVG Export Plug-In . SVG Version: 6.00 Build 0)  -->
<svg version="1.1" id="Layer_1" xmlns="http://www.w3.org/2000/svg" xmlns:xlink="http://www.w3.org/1999/xlink" x="0px" y="0px"
	 viewBox="0 0 512 512" style="enable-background:new 0 0 512 512;" xml:space="preserve">
<style type="text/css">
	.st0{fill:none;}
	.st1{fill:#CAD8DD;}
	.st2{fill:#DDE5E8;}
	.st3{fill:#71C6C4;}
	.st4{opacity:6.000000e-02;}
	.st5{fill:#17292D;}
</style>
<title>man-1-flat</title>
<g>
	<g>
		<path class="st0" d="M61.2,422c-6.4,18.1-10,37.6-10,58c0,17.7,14.3,32,32,32H256C178,512,108.1,477.1,61.2,422z"/>
		<path class="st0" d="M256,512h172.8c17.7,0,32-14.3,32-32c0-20.3-3.5-39.8-10-58C403.9,477.1,334,512,256,512z"/>
		<path class="st1" d="M450.8,422C427,355.1,363.1,307.2,288,307.2h-64c-75.1,0-139,47.9-162.8,114.8c47,55,116.8,90,194.8,90
			S403.9,477.1,450.8,422z"/>
	</g>
	<path class="st2" d="M256,0c-70.7,0-128,57.3-128,128v38.4c0,45.7,24.4,88,64,110.9v55.5l64,38.4l64-38.4v-55.5
		c39.6-22.9,64-65.1,64-110.9V128C384,57.3,326.7,0,256,0z"/>
	<path class="st3" d="M256,0c-70.7,0-128,57.3-128,128v25.6l76.8-51.2c0,0,109.4,69.9,179.2,38.4V128C384,57.3,326.7,0,256,0z"/>
	<g class="st4">
		<path class="st5" d="M256,0c-10.8,0-21.6,1.5-32,4.2c56.5,14.6,96,65.5,96,123.8v38.4c0,58.3-39.5,109.2-96,123.8
			c68.1,17.9,137.9-22.8,155.8-90.9c2.8-10.7,4.2-21.8,4.2-32.9V128C384,57.3,326.7,0,256,0z"/>
	</g>
</g>
</svg>
