<svg id="Layer_1" enable-background="new 0 0 256 256" height="512" viewBox="0 0 256 256" width="512" xmlns="http://www.w3.org/2000/svg"><path d="m227 62.768h-48.456l-17.06-27.159c-1.83-2.913-5.028-4.681-8.468-4.681h-50.032c-3.44 0-6.638 1.768-8.468 4.681l-17.06 27.159h-48.456c-13.807 0-25 11.193-25 25v112.304c0 13.807 11.193 25 25 25h198c13.807 0 25-11.193 25-25v-112.304c0-13.807-11.193-25-25-25z" fill="#f4efed"/><path d="m179.188 227.072h-102.376c-11.036 0-20.014-8.979-20.014-20.015 0-11.035 8.979-20.014 20.014-20.014h102.377c11.036 0 20.014 8.979 20.014 20.014 0 11.037-8.979 20.015-20.015 20.015zm-102.376-36.028c-8.83 0-16.014 7.184-16.014 16.014s7.184 16.015 16.014 16.015h102.377c8.83 0 16.014-7.185 16.014-16.015s-7.184-16.014-16.014-16.014z" fill="#690589"/><path d="m14 200.072v-112.304c0-13.807 11.193-25 25-25h-10c-13.807 0-25 11.193-25 25v112.304c0 13.807 11.193 25 25 25h10c-13.807 0-25-11.193-25-25z" fill="#fff"/><path d="m143.872 43.24h-31.745c-2.761 0-5 2.238-5 5v9.529c0 2.761 2.239 5 5 5h31.745c2.762 0 5-2.239 5-5v-9.529c0-2.762-2.238-5-5-5z" fill="#526faa"/><path d="m227 62.768h-1.323c9.529 3.561 16.323 12.818 16.323 23.677v113.386c0 13.94-11.193 25.241-25 25.241h10c13.807 0 25-11.193 25-25v-112.304c0-13.807-11.193-25-25-25z" fill="#d6d1cf"/><path d="m4 98.796h248v90.248h-248z" fill="#ff4397"/><path d="m242 98.796h10v90.248h-10z" fill="#e12579"/><path d="m4 98.796h10v90.248h-10z" fill="#ff61b5"/><path d="m227 227.072h-198c-14.888 0-27-12.112-27-27v-112.303c0-14.888 12.112-27 27-27h47.351l16.471-26.223c2.21-3.519 6.009-5.618 10.162-5.618h50.032c4.153 0 7.952 2.1 10.162 5.618l16.472 26.223h47.35c14.888 0 27 12.112 27 27v112.304c0 14.887-12.112 26.999-27 26.999zm-198-162.303c-12.682 0-23 10.317-23 23v112.304c0 12.683 10.318 23 23 23h198c12.682 0 23-10.317 23-23v-112.304c0-12.683-10.318-23-23-23h-48.456c-.688 0-1.328-.354-1.694-.937l-17.06-27.159c-1.473-2.345-4.006-3.745-6.774-3.745h-50.032c-2.769 0-5.301 1.4-6.775 3.745l-17.059 27.159c-.366.583-1.006.937-1.694.937z" fill="#690589"/><path d="m252 191.044h-248c-1.104 0-2-.896-2-2v-90.248c0-1.104.896-2 2-2h248c1.104 0 2 .896 2 2v90.248c0 1.104-.896 2-2 2zm-246-4h244v-86.248h-244z" fill="#690589"/><circle cx="224.398" cy="81.138" fill="#ff4397" r="7.351"/><path d="m63.443 62.768h-29.587v-10.92c0-2.761 2.239-5 5-5h19.587c2.761 0 5 2.239 5 5z" fill="#526faa"/><path d="m63.443 64.769h-29.588c-1.104 0-2-.896-2-2v-10.921c0-3.859 3.14-7 7-7h19.587c3.86 0 7 3.141 7 7v10.921c.001 1.104-.895 2-1.999 2zm-27.588-4h25.587v-8.921c0-1.654-1.346-3-3-3h-19.587c-1.654 0-3 1.346-3 3z" fill="#690589"/><path d="m224.398 90.489c-5.156 0-9.351-4.194-9.351-9.351s4.195-9.352 9.351-9.352 9.351 4.195 9.351 9.352-4.195 9.351-9.351 9.351zm0-14.702c-2.951 0-5.351 2.4-5.351 5.352 0 2.95 2.4 5.351 5.351 5.351s5.351-2.4 5.351-5.351-2.4-5.352-5.351-5.352z" fill="#690589"/><ellipse cx="128" cy="143.92" fill="#fcc24c" rx="59.904" ry="59.904" transform="matrix(.16 -.987 .987 .16 -34.565 247.214)"/><path d="m128 205.824c-34.134 0-61.904-27.771-61.904-61.904s27.77-61.904 61.904-61.904 61.904 27.771 61.904 61.904-27.77 61.904-61.904 61.904zm0-119.808c-31.929 0-57.904 25.976-57.904 57.904s25.975 57.904 57.904 57.904 57.904-25.976 57.904-57.904-25.975-57.904-57.904-57.904z" fill="#690589"/><ellipse cx="128" cy="143.92" fill="#526faa" rx="45.124" ry="45.124" transform="matrix(.16 -.987 .987 .16 -34.565 247.214)"/><path d="m128 98.796c-1.179 0-2.344.059-3.5.148 23.284 1.788 41.624 21.234 41.624 44.976s-18.34 43.188-41.624 44.976c1.156.089 2.321.148 3.5.148 24.921 0 45.124-20.203 45.124-45.124s-20.203-45.124-45.124-45.124z" fill="#34518c"/><path d="m128 189.044c1.179 0 2.344-.059 3.5-.148-23.284-1.788-41.624-21.234-41.624-44.976s18.34-43.188 41.624-44.976c-1.156-.089-2.321-.148-3.5-.148-24.921 0-45.124 20.203-45.124 45.124s20.203 45.124 45.124 45.124z" fill="#708dc8"/><path d="m128 191.044c-25.984 0-47.124-21.14-47.124-47.124s21.14-47.124 47.124-47.124 47.124 21.14 47.124 47.124-21.14 47.124-47.124 47.124zm0-90.248c-23.779 0-43.124 19.346-43.124 43.124s19.345 43.124 43.124 43.124 43.124-19.346 43.124-43.124-19.345-43.124-43.124-43.124z" fill="#690589"/><ellipse cx="108.874" cy="123.056" fill="#f4efed" rx="7.351" ry="7.351" transform="matrix(.16 -.987 .987 .16 -30.033 210.813)"/><g fill="#690589"><path d="m108.875 132.407c-5.156 0-9.351-4.194-9.351-9.351s4.195-9.352 9.351-9.352 9.351 4.195 9.351 9.352-4.195 9.351-9.351 9.351zm0-14.702c-2.951 0-5.351 2.4-5.351 5.352 0 2.95 2.4 5.351 5.351 5.351s5.351-2.4 5.351-5.351c0-2.952-2.401-5.352-5.351-5.352z"/><path d="m14 133.093c-1.104 0-2-.896-2-2v-12c0-1.104.896-2 2-2s2 .896 2 2v12c0 1.104-.896 2-2 2z"/><path d="m143.872 64.769h-31.745c-3.86 0-7-3.141-7-7v-9.529c0-3.859 3.14-7 7-7h31.745c3.86 0 7 3.141 7 7v9.529c0 3.859-3.14 7-7 7zm-31.745-19.53c-1.654 0-3 1.346-3 3v9.529c0 1.654 1.346 3 3 3h31.745c1.654 0 3-1.346 3-3v-9.529c0-1.654-1.346-3-3-3z"/></g></svg>